# xmcd CD database file
#
# Track frame offsets:
#	150
#	9541
#	17825
#	26772
#	37956
#	50868
#	61916
#	73989
#	85356
#	95840
#	106247
#	116849
#	129836
#	141059
#	152697
#	164290
#	169348
#	181307
#	186605
#
# Disc length: 2617 seconds
#
# Revision: 0
# Processed by: cddbd v1.4PL0 Copyright (c) Steve Scherf et al.
# Submitted via: CDex 1.50beta9
#
DISCID=100a3713
DTITLE=Charlie Rich - Lonely Weekends
DYEAR=2001
DGENRE=Country
TTITLE0=Lonely Weekends
TTITLE1=Rebound
TTITLE2=Philadelphia Baby
TTITLE3=Break Up
TTITLE4=Juanita
TTITLE5=School Days
TTITLE6=Big Man
TTITLE7=Easy Money
TTITLE8=CC Rider
TTITLE9=I Need Your Love
TTITLE10=Finally Found Out
TTITLE11=Stay
TTITLE12=Caught In The Middle
TTITLE13=Midnight Blues
TTITLE14=It Hurt Me So
TTITLE15=Juicehead Baby
TTITLE16=It's Too Late
TTITLE17=Charlie's Boogie
TTITLE18=Whirlwind
EXTD=YEAR: 2001
EXTT0=
EXTT1=
EXTT2=
EXTT3=
EXTT4=
EXTT5=
EXTT6=
EXTT7=
EXTT8=
EXTT9=
EXTT10=
EXTT11=
EXTT12=
EXTT13=
EXTT14=
EXTT15=
EXTT16=
EXTT17=
EXTT18=
PLAYORDER=
